<svg width="164" height="68" viewBox="0 0 164 68" fill="none" xmlns="http://www.w3.org/2000/svg">
<path d="M2.448 59V35.098H7.072V59H2.448ZM17.442 59V35.098H22.066V59H17.442ZM5.372 48.698V44.618H18.734V48.698H5.372ZM34.3299 59.34C32.6072 59.34 31.0772 58.9773 29.7399 58.252C28.4026 57.504 27.3372 56.484 26.5439 55.192C25.7732 53.9 25.3879 52.4267 25.3879 50.772C25.3879 49.14 25.7619 47.6893 26.5099 46.42C27.2806 45.128 28.3232 44.108 29.6379 43.36C30.9526 42.5893 32.4146 42.204 34.0239 42.204C35.6106 42.204 37.0046 42.5667 38.2059 43.292C39.4299 43.9947 40.3819 44.9693 41.0619 46.216C41.7646 47.44 42.1159 48.834 42.1159 50.398C42.1159 50.6927 42.0932 50.9987 42.0479 51.316C42.0252 51.6107 41.9686 51.9507 41.8779 52.336L28.0739 52.37V49.038L39.8039 49.004L38.0019 50.398C37.9566 49.4233 37.7752 48.6073 37.4579 47.95C37.1632 47.2927 36.7212 46.794 36.1319 46.454C35.5652 46.0913 34.8626 45.91 34.0239 45.91C33.1399 45.91 32.3692 46.114 31.7119 46.522C31.0546 46.9073 30.5446 47.4627 30.1819 48.188C29.8419 48.8907 29.6719 49.7293 29.6719 50.704C29.6719 51.7013 29.8532 52.574 30.2159 53.322C30.6012 54.0473 31.1452 54.614 31.8479 55.022C32.5506 55.4073 33.3666 55.6 34.2959 55.6C35.1346 55.6 35.8939 55.464 36.5739 55.192C37.2539 54.8973 37.8432 54.4667 38.3419 53.9L40.9599 56.518C40.1666 57.4473 39.1919 58.15 38.0359 58.626C36.9026 59.102 35.6672 59.34 34.3299 59.34ZM51.7384 59.34C50.2424 59.34 48.8938 58.966 47.6924 58.218C46.4911 57.47 45.5504 56.45 44.8704 55.158C44.1904 53.866 43.8504 52.4153 43.8504 50.806C43.8504 49.174 44.1904 47.712 44.8704 46.42C45.5504 45.128 46.4911 44.108 47.6924 43.36C48.8938 42.612 50.2424 42.238 51.7384 42.238C52.9171 42.238 53.9711 42.476 54.9004 42.952C55.8298 43.428 56.5664 44.0967 57.1104 44.958C57.6771 45.7967 57.9831 46.7487 58.0284 47.814V53.73C57.9831 54.818 57.6771 55.7813 57.1104 56.62C56.5664 57.4587 55.8298 58.1273 54.9004 58.626C53.9711 59.102 52.9171 59.34 51.7384 59.34ZM52.5544 55.226C53.8011 55.226 54.8098 54.818 55.5804 54.002C56.3511 53.1633 56.7364 52.0867 56.7364 50.772C56.7364 49.9107 56.5551 49.1513 56.1924 48.494C55.8524 47.814 55.3651 47.2927 54.7304 46.93C54.1184 46.5447 53.3931 46.352 52.5544 46.352C51.7384 46.352 51.0131 46.5447 50.3784 46.93C49.7664 47.2927 49.2791 47.814 48.9164 48.494C48.5764 49.1513 48.4064 49.9107 48.4064 50.772C48.4064 51.656 48.5764 52.438 48.9164 53.118C49.2791 53.7753 49.7664 54.2967 50.3784 54.682C51.0131 55.0447 51.7384 55.226 52.5544 55.226ZM56.4984 59V54.58L57.2124 50.568L56.4984 46.624V42.578H60.9184V59H56.4984ZM64.8587 59V34.418H69.3127V59H64.8587ZM75.6731 59V35.744H80.1271V59H75.6731ZM71.8311 46.488V42.578H83.9691V46.488H71.8311ZM97.524 59V49.582C97.524 48.6073 97.218 47.814 96.606 47.202C95.994 46.59 95.2006 46.284 94.226 46.284C93.5913 46.284 93.0246 46.42 92.526 46.692C92.0273 46.964 91.6306 47.3493 91.336 47.848C91.064 48.3467 90.928 48.9247 90.928 49.582L89.194 48.698C89.194 47.406 89.466 46.284 90.01 45.332C90.554 44.3573 91.302 43.598 92.254 43.054C93.2286 42.51 94.3393 42.238 95.586 42.238C96.8326 42.238 97.932 42.51 98.884 43.054C99.8586 43.598 100.618 44.346 101.162 45.298C101.706 46.25 101.978 47.3493 101.978 48.596V59H97.524ZM86.474 59V34.418H90.928V59H86.474ZM112.978 59.34C111.051 59.34 109.396 59.0113 108.014 58.354C106.654 57.6967 105.418 56.7107 104.308 55.396L107.368 52.336C108.07 53.2653 108.886 53.9907 109.816 54.512C110.745 55.0107 111.878 55.26 113.216 55.26C114.417 55.26 115.369 55.022 116.072 54.546C116.797 54.07 117.16 53.4127 117.16 52.574C117.16 51.8487 116.956 51.2593 116.548 50.806C116.14 50.3527 115.596 49.9673 114.916 49.65C114.258 49.3327 113.522 49.0493 112.706 48.8C111.912 48.528 111.108 48.222 110.292 47.882C109.498 47.542 108.762 47.1227 108.082 46.624C107.424 46.1027 106.892 45.4453 106.484 44.652C106.076 43.836 105.872 42.816 105.872 41.592C105.872 40.1413 106.223 38.906 106.926 37.886C107.628 36.866 108.592 36.084 109.816 35.54C111.04 34.996 112.422 34.724 113.964 34.724C115.596 34.724 117.069 35.03 118.384 35.642C119.698 36.254 120.775 37.0473 121.614 38.022L118.554 41.082C117.851 40.3113 117.126 39.7447 116.378 39.382C115.652 39.0193 114.825 38.838 113.896 38.838C112.83 38.838 111.992 39.042 111.38 39.45C110.768 39.858 110.462 40.4473 110.462 41.218C110.462 41.8753 110.666 42.408 111.074 42.816C111.482 43.224 112.014 43.5753 112.672 43.87C113.352 44.1647 114.088 44.448 114.882 44.72C115.698 44.992 116.502 45.298 117.296 45.638C118.112 45.978 118.848 46.42 119.506 46.964C120.186 47.508 120.73 48.2107 121.138 49.072C121.546 49.9107 121.75 50.9533 121.75 52.2C121.75 54.4213 120.968 56.1667 119.404 57.436C117.84 58.7053 115.698 59.34 112.978 59.34ZM124.923 59V34.418H129.377V59H124.923ZM141.042 59.34C139.387 59.34 137.891 58.966 136.554 58.218C135.239 57.4473 134.185 56.416 133.392 55.124C132.621 53.8093 132.236 52.3473 132.236 50.738C132.236 49.1287 132.621 47.6893 133.392 46.42C134.162 45.128 135.216 44.108 136.554 43.36C137.891 42.5893 139.376 42.204 141.008 42.204C142.685 42.204 144.181 42.5893 145.496 43.36C146.833 44.108 147.887 45.128 148.658 46.42C149.428 47.6893 149.814 49.1287 149.814 50.738C149.814 52.3473 149.428 53.8093 148.658 55.124C147.887 56.416 146.833 57.4473 145.496 58.218C144.181 58.966 142.696 59.34 141.042 59.34ZM141.008 55.192C141.846 55.192 142.583 55.0107 143.218 54.648C143.875 54.2627 144.374 53.7413 144.714 53.084C145.076 52.404 145.258 51.6333 145.258 50.772C145.258 49.9107 145.076 49.1513 144.714 48.494C144.351 47.8367 143.852 47.3267 143.218 46.964C142.583 46.5787 141.846 46.386 141.008 46.386C140.192 46.386 139.466 46.5787 138.832 46.964C138.197 47.3267 137.698 47.8367 137.336 48.494C136.973 49.1513 136.792 49.9107 136.792 50.772C136.792 51.6333 136.973 52.404 137.336 53.084C137.698 53.7413 138.197 54.2627 138.832 54.648C139.466 55.0107 140.192 55.192 141.008 55.192ZM154.697 59V35.744H159.151V59H154.697ZM150.855 46.488V42.578H162.993V46.488H150.855Z" fill="#14B8A6"/>
<g clip-path="url(#clip0_219_26)">
<path d="M152.652 4.21598C151.323 2.87381 149.739 1.80978 147.994 1.08596C146.25 0.362132 144.378 -0.00699774 142.489 0.000100458C134.574 0.000100458 128.123 6.44898 128.116 14.366C128.116 16.9017 128.779 19.3685 130.032 21.5525L128 29.0001L135.62 27.0027C137.727 28.1523 140.089 28.7537 142.489 28.7518H142.496C150.413 28.7518 156.862 22.3029 156.869 14.3787C156.871 12.4901 156.499 10.62 155.775 8.87581C155.051 7.13165 153.991 5.54798 152.652 4.21598ZM142.489 26.3194C140.349 26.3177 138.248 25.7419 136.406 24.6519L135.971 24.3909L131.451 25.5763L132.658 21.1665L132.375 20.7115C131.179 18.809 130.546 16.6063 130.55 14.3587C130.55 7.7866 135.91 2.42523 142.496 2.42523C144.066 2.42241 145.62 2.73022 147.069 3.33092C148.519 3.93161 149.835 4.8133 150.943 5.92516C152.054 7.03287 152.934 8.34946 153.534 9.79907C154.134 11.2487 154.441 12.8026 154.437 14.3714C154.43 20.9671 149.07 26.3194 142.489 26.3194Z" fill="#14B8A6"/>
<rect x="140" y="7" width="5" height="15" rx="2.5" fill="#14B8A6"/>
<rect x="150" y="12" width="5" height="15" rx="2.5" transform="rotate(90 150 12)" fill="#14B8A6"/>
</g>
<path d="M4.464 29V28.328H9.4144C10.7584 28.328 11.9456 28.0293 12.976 27.432C14.0213 26.8347 14.8352 26.0208 15.4176 24.9904C16 23.9451 16.2912 22.7504 16.2912 21.4064C16.2912 20.0773 16 18.8976 15.4176 17.8672C14.8352 16.8219 14.0213 16.008 12.976 15.4256C11.9456 14.8283 10.7584 14.5296 9.4144 14.5296H4.5536V13.8576H9.4144C10.5344 13.8576 11.5573 14.0443 12.4832 14.4176C13.4091 14.7909 14.2155 15.3136 14.9024 15.9856C15.5893 16.6576 16.1195 17.4565 16.4928 18.3824C16.8661 19.3083 17.0528 20.3237 17.0528 21.4288C17.0528 22.5189 16.8661 23.5269 16.4928 24.4528C16.1195 25.3787 15.5893 26.1851 14.9024 26.872C14.2304 27.544 13.4315 28.0667 12.5056 28.44C11.5797 28.8133 10.5643 29 9.4592 29H4.464ZM4.2176 29V13.8576H4.9344V29H4.2176ZM24.9663 29.224C23.9508 29.224 23.0399 28.9925 22.2335 28.5296C21.442 28.0517 20.8148 27.4096 20.3519 26.6032C19.889 25.7968 19.6575 24.8859 19.6575 23.8704C19.6575 22.8549 19.889 21.944 20.3519 21.1376C20.8148 20.3163 21.442 19.6667 22.2335 19.1888C23.025 18.7109 23.921 18.472 24.9215 18.472C25.713 18.472 26.4223 18.6213 27.0495 18.92C27.6916 19.2037 28.2218 19.6144 28.6399 20.152C29.073 20.6896 29.3716 21.3317 29.5359 22.0784V25.5952C29.3567 26.3419 29.0506 26.9915 28.6175 27.544C28.1994 28.0816 27.6767 28.4997 27.0495 28.7984C26.4372 29.0821 25.7428 29.224 24.9663 29.224ZM25.0559 28.5744C26.3402 28.5744 27.3631 28.1488 28.1247 27.2976C28.8863 26.4315 29.2671 25.2891 29.2671 23.8704C29.2671 22.9147 29.0879 22.0859 28.7295 21.384C28.386 20.6672 27.8932 20.1147 27.2511 19.7264C26.609 19.3232 25.8623 19.1216 25.0111 19.1216C24.1151 19.1216 23.3162 19.3307 22.6143 19.7488C21.9274 20.152 21.3823 20.712 20.9791 21.4288C20.5759 22.1307 20.3743 22.9371 20.3743 23.848C20.3743 24.7589 20.5759 25.5728 20.9791 26.2896C21.3823 26.9915 21.9348 27.5515 22.6367 27.9696C23.3535 28.3728 24.1599 28.5744 25.0559 28.5744ZM29.2447 29V26.2448L29.4463 23.6912L29.2447 21.2048V18.696H29.9391V29H29.2447ZM36.4769 29.224C35.9244 29.224 35.4017 29.1493 34.9089 29C34.4311 28.8357 33.998 28.6192 33.6097 28.3504C33.2215 28.0667 32.878 27.7456 32.5793 27.3872L33.0497 26.8944C33.4977 27.4768 34.0129 27.9099 34.5953 28.1936C35.1777 28.4624 35.8124 28.5968 36.4993 28.5968C37.3505 28.5968 38.03 28.4176 38.5377 28.0592C39.0455 27.6859 39.2993 27.1781 39.2993 26.536C39.2993 25.9685 39.15 25.5205 38.8513 25.192C38.5676 24.8635 38.1943 24.6096 37.7313 24.4304C37.2684 24.2512 36.7756 24.0869 36.2529 23.9376C35.7452 23.7883 35.2599 23.6165 34.7969 23.4224C34.334 23.2133 33.9532 22.9296 33.6545 22.5712C33.3708 22.1979 33.2289 21.6976 33.2289 21.0704C33.2289 20.5627 33.3633 20.1147 33.6321 19.7264C33.9009 19.3381 34.2817 19.032 34.7745 18.808C35.2673 18.584 35.8497 18.472 36.5217 18.472C37.2535 18.472 37.9255 18.6064 38.5377 18.8752C39.15 19.1291 39.6279 19.5024 39.9713 19.9952L39.5009 20.4656C39.2023 20.0475 38.7841 19.7189 38.2465 19.48C37.7089 19.2261 37.1116 19.0992 36.4545 19.0992C35.6183 19.0992 34.9836 19.2859 34.5505 19.6592C34.1175 20.0325 33.9009 20.4955 33.9009 21.048C33.9009 21.5707 34.0428 21.9813 34.3265 22.28C34.6252 22.5787 35.006 22.8101 35.4689 22.9744C35.9319 23.1387 36.4172 23.2955 36.9249 23.4448C37.4476 23.5792 37.9404 23.7584 38.4033 23.9824C38.8663 24.1915 39.2396 24.4901 39.5233 24.8784C39.822 25.2517 39.9713 25.7744 39.9713 26.4464C39.9713 27.2976 39.6503 27.9771 39.0081 28.4848C38.3809 28.9776 37.5372 29.224 36.4769 29.224ZM50.8351 29V22.84C50.8351 21.72 50.5141 20.8165 49.8719 20.1296C49.2298 19.4427 48.3711 19.0992 47.2959 19.0992C46.5642 19.0992 45.9146 19.2635 45.3471 19.592C44.7946 19.9056 44.3541 20.3387 44.0255 20.8912C43.7119 21.4437 43.5551 22.0859 43.5551 22.8176L43.0847 22.5488C43.0847 21.7723 43.2714 21.0779 43.6447 20.4656C44.033 19.8533 44.5482 19.368 45.1903 19.0096C45.8474 18.6512 46.5866 18.472 47.4079 18.472C48.2293 18.472 48.9461 18.6587 49.5583 19.032C50.1855 19.4053 50.6709 19.9205 51.0143 20.5776C51.3578 21.2347 51.5295 21.9888 51.5295 22.84V29H50.8351ZM42.8607 29V13.4096H43.5551V29H42.8607ZM60.0216 29.224C59.2451 29.224 58.5283 29.0747 57.8712 28.776C57.2291 28.4773 56.6765 28.0592 56.2136 27.5216C55.7656 26.9691 55.452 26.3269 55.2728 25.5952V22.0784C55.452 21.3168 55.7731 20.6672 56.236 20.1296C56.6989 19.592 57.2589 19.1813 57.916 18.8976C58.5731 18.6139 59.2749 18.472 60.0216 18.472C61.0072 18.472 61.8808 18.7109 62.6424 19.1888C63.4189 19.6517 64.0312 20.2939 64.4792 21.1152C64.9272 21.9216 65.1512 22.84 65.1512 23.8704C65.1512 24.8859 64.9272 25.7968 64.4792 26.6032C64.0461 27.4096 63.4413 28.0517 62.6648 28.5296C61.8883 28.9925 61.0072 29.224 60.0216 29.224ZM54.892 29V13.4096H55.5864V21.2048L55.3624 23.6912L55.5864 26.2448V29H54.892ZM59.8872 28.5744C60.7832 28.5744 61.5672 28.3728 62.2392 27.9696C62.9261 27.5664 63.4637 27.0064 63.852 26.2896C64.2403 25.5728 64.4344 24.7589 64.4344 23.848C64.4344 22.9221 64.2403 22.1083 63.852 21.4064C63.4637 20.6896 62.9336 20.1296 62.2616 19.7264C61.5896 19.3232 60.8205 19.1216 59.9544 19.1216C59.0883 19.1216 58.3267 19.3232 57.6696 19.7264C57.0125 20.1296 56.4973 20.6896 56.124 21.4064C55.7507 22.1083 55.564 22.9296 55.564 23.8704C55.564 24.7813 55.7432 25.5952 56.1016 26.312C56.4749 27.0139 56.9827 27.5664 57.6248 27.9696C58.2819 28.3728 59.036 28.5744 59.8872 28.5744ZM72.7194 29.224C71.7189 29.224 70.8154 28.9851 70.009 28.5072C69.2176 28.0293 68.5829 27.3797 68.105 26.5584C67.6421 25.7371 67.4106 24.8187 67.4106 23.8032C67.4106 22.8027 67.6421 21.8992 68.105 21.0928C68.5829 20.2864 69.2176 19.6517 70.009 19.1888C70.8154 18.7109 71.7189 18.472 72.7194 18.472C73.705 18.472 74.5936 18.7109 75.385 19.1888C76.1914 19.6517 76.8261 20.2864 77.289 21.0928C77.7669 21.8992 78.0058 22.8027 78.0058 23.8032C78.0058 24.8336 77.7669 25.7595 77.289 26.5808C76.8261 27.3872 76.1914 28.0293 75.385 28.5072C74.5936 28.9851 73.705 29.224 72.7194 29.224ZM72.7194 28.5744C73.5856 28.5744 74.3621 28.3653 75.049 27.9472C75.736 27.5291 76.281 26.9616 76.6842 26.2448C77.0874 25.5131 77.289 24.6917 77.289 23.7808C77.289 22.8997 77.0874 22.1083 76.6842 21.4064C76.281 20.7045 75.736 20.152 75.049 19.7488C74.3621 19.3307 73.5856 19.1216 72.7194 19.1216C71.8533 19.1216 71.0693 19.3307 70.3674 19.7488C69.6805 20.152 69.1354 20.7045 68.7322 21.4064C68.329 22.1083 68.1274 22.9072 68.1274 23.8032C68.1274 24.7141 68.329 25.528 68.7322 26.2448C69.1354 26.9616 69.6805 27.5291 70.3674 27.9472C71.0693 28.3653 71.8533 28.5744 72.7194 28.5744ZM85.56 29.224C84.5446 29.224 83.6336 28.9925 82.8272 28.5296C82.0358 28.0517 81.4086 27.4096 80.9456 26.6032C80.4827 25.7968 80.2512 24.8859 80.2512 23.8704C80.2512 22.8549 80.4827 21.944 80.9456 21.1376C81.4086 20.3163 82.0358 19.6667 82.8272 19.1888C83.6187 18.7109 84.5147 18.472 85.5152 18.472C86.3067 18.472 87.016 18.6213 87.6432 18.92C88.2854 19.2037 88.8155 19.6144 89.2336 20.152C89.6667 20.6896 89.9654 21.3317 90.1296 22.0784V25.5952C89.9504 26.3419 89.6443 26.9915 89.2112 27.544C88.7931 28.0816 88.2704 28.4997 87.6432 28.7984C87.031 29.0821 86.3366 29.224 85.56 29.224ZM85.6496 28.5744C86.9339 28.5744 87.9568 28.1488 88.7184 27.2976C89.48 26.4315 89.8608 25.2891 89.8608 23.8704C89.8608 22.9147 89.6816 22.0859 89.3232 21.384C88.9798 20.6672 88.487 20.1147 87.8448 19.7264C87.2027 19.3232 86.456 19.1216 85.6048 19.1216C84.7088 19.1216 83.9099 19.3307 83.208 19.7488C82.5211 20.152 81.976 20.712 81.5728 21.4288C81.1696 22.1307 80.968 22.9371 80.968 23.848C80.968 24.7589 81.1696 25.5728 81.5728 26.2896C81.976 26.9915 82.5286 27.5515 83.2304 27.9696C83.9472 28.3728 84.7536 28.5744 85.6496 28.5744ZM89.8384 29V26.2448L90.04 23.6912L89.8384 21.2048V18.696H90.5328V29H89.8384ZM94.1139 29V18.696H94.8083V29H94.1139ZM94.8083 22.7056L94.3379 22.5712C94.3379 21.2571 94.6813 20.2491 95.3683 19.5472C96.0701 18.8304 96.9437 18.472 97.9891 18.472C98.4968 18.472 98.9672 18.5616 99.4003 18.7408C99.8483 18.92 100.259 19.2037 100.632 19.592L100.162 20.1072C99.8483 19.7637 99.5048 19.5173 99.1315 19.368C98.7731 19.2187 98.3549 19.144 97.8771 19.144C96.9661 19.144 96.2269 19.4576 95.6595 20.0848C95.092 20.6971 94.8083 21.5707 94.8083 22.7056ZM106.797 29.224C105.811 29.224 104.93 28.9925 104.154 28.5296C103.392 28.0517 102.787 27.4096 102.339 26.6032C101.891 25.7968 101.667 24.8859 101.667 23.8704C101.667 22.84 101.891 21.9216 102.339 21.1152C102.787 20.2939 103.4 19.6517 104.176 19.1888C104.953 18.7109 105.826 18.472 106.797 18.472C107.544 18.472 108.246 18.6139 108.903 18.8976C109.56 19.1813 110.12 19.592 110.583 20.1296C111.06 20.6672 111.382 21.3168 111.546 22.0784V25.5952C111.367 26.3269 111.046 26.9691 110.583 27.5216C110.135 28.0592 109.582 28.4773 108.925 28.776C108.283 29.0747 107.574 29.224 106.797 29.224ZM106.931 28.5744C107.783 28.5744 108.529 28.3728 109.171 27.9696C109.828 27.5664 110.336 27.0139 110.695 26.312C111.068 25.5952 111.255 24.7813 111.255 23.8704C111.255 22.9296 111.068 22.1083 110.695 21.4064C110.321 20.6896 109.806 20.1296 109.149 19.7264C108.492 19.3232 107.73 19.1216 106.864 19.1216C105.998 19.1216 105.229 19.3232 104.557 19.7264C103.885 20.1296 103.355 20.6896 102.967 21.4064C102.578 22.1083 102.384 22.9221 102.384 23.848C102.384 24.7589 102.578 25.5728 102.967 26.2896C103.355 27.0064 103.892 27.5664 104.579 27.9696C105.266 28.3728 106.05 28.5744 106.931 28.5744ZM111.927 29H111.232V26.2448L111.456 23.6912L111.232 21.2048V13.4096H111.927V29Z" fill="#838282"/>
<defs>
<clipPath id="clip0_219_26">
<rect width="29" height="29" fill="white" transform="translate(128)"/>
</clipPath>
</defs>
</svg>
